<?xml version="1.0" encoding="UTF-8" standalone="no"?>
<svg
   xmlns:dc="http://purl.org/dc/elements/1.1/"
   xmlns:cc="http://creativecommons.org/ns#"
   xmlns:rdf="http://www.w3.org/1999/02/22-rdf-syntax-ns#"
   xmlns:svg="http://www.w3.org/2000/svg"
   xmlns="http://www.w3.org/2000/svg"
   xmlns:sodipodi="http://sodipodi.sourceforge.net/DTD/sodipodi-0.dtd"
   xmlns:inkscape="http://www.inkscape.org/namespaces/inkscape"
   version="1.1"
   id="svg2"
   xml:space="preserve"
   width="163.61172"
   height="59.615997"
   viewBox="0 0 163.61172 59.615997"
   sodipodi:docname="ABSLogo.svg"
   inkscape:version="1.0.2-2 (e86c870879, 2021-01-15)"><metadata
     id="metadata8"><rdf:RDF><cc:Work
         rdf:about=""><dc:format>image/svg+xml</dc:format><dc:type
           rdf:resource="http://purl.org/dc/dcmitype/StillImage" /><dc:title></dc:title></cc:Work></rdf:RDF></metadata><defs
     id="defs6"><clipPath
       clipPathUnits="userSpaceOnUse"
       id="clipPath24"><path
         d="M 0,306 H 684 V 0 H 0 Z"
         id="path22" /></clipPath></defs><sodipodi:namedview
     pagecolor="#ffffff"
     bordercolor="#666666"
     borderopacity="1"
     objecttolerance="10"
     gridtolerance="10"
     guidetolerance="10"
     inkscape:pageopacity="0"
     inkscape:pageshadow="2"
     inkscape:window-width="1377"
     inkscape:window-height="761"
     id="namedview4"
     showgrid="false"
     fit-margin-top="0"
     fit-margin-left="0"
     fit-margin-right="0"
     fit-margin-bottom="0"
     inkscape:zoom="1.7160088"
     inkscape:cx="87.73252"
     inkscape:cy="72.615574"
     inkscape:window-x="0"
     inkscape:window-y="0"
     inkscape:window-maximized="0"
     inkscape:current-layer="g10" /><g
     id="g10"
     inkscape:groupmode="layer"
     inkscape:label="#10Corporate_env_SpringTX"
     transform="matrix(1.3333333,0,0,-1.3333333,-45.715866,369.85519)"><g
       id="g14"
       transform="translate(94.4438,244.5151)"><path
         d="M 0,0 -2.95,7.489 -5.938,0 Z M -6.43,16.188 H 0.643 L 11.914,-10.477 H 4.047 l -1.891,4.766 h -10.25 l -1.891,-4.766 h -7.678 z"
         style="fill:#211d1d;fill-opacity:1;fill-rule:nonzero;stroke:none"
         id="path16" /></g><g
       id="g18"><g
         id="g20"
         clip-path="url(#clipPath24)"><g
           id="g26"
           transform="translate(121.3271,244.8174)"><path
             d="m 0,0 h -5.598 v -4.879 h 5.673 c 2.27,0 3.518,0.87 3.518,2.421 v 0.076 C 3.593,-0.946 2.458,0 0,0 m 2.534,7.526 c 0,1.476 -1.173,2.27 -3.328,2.27 H -5.598 V 5.144 h 4.615 c 2.231,0 3.517,0.756 3.517,2.307 z m -15.281,8.17 H 0.832 c 3.328,0 5.673,-0.832 7.224,-2.344 C 9.115,12.255 9.758,10.855 9.758,9.04 V 8.964 C 9.758,5.9 8.018,4.085 5.673,3.064 8.888,2.005 10.93,0.189 10.93,-3.404 v -0.075 c 0,-4.539 -3.706,-7.3 -10.023,-7.3 h -13.654 z"
             style="fill:#211d1d;fill-opacity:1;fill-rule:nonzero;stroke:none"
             id="path28" /></g><g
           id="g30"
           transform="translate(133.8867,237.9722)"><path
             d="M 0,0 4.085,4.879 C 6.732,2.798 9.606,1.702 12.67,1.702 c 2.005,0 3.064,0.68 3.064,1.815 v 0.075 c 0,1.136 -0.87,1.702 -4.501,2.573 C 5.597,7.45 1.248,9.039 1.248,14.448 v 0.075 c 0,4.917 3.896,8.473 10.25,8.473 4.501,0 8.018,-1.211 10.893,-3.518 l -3.669,-5.182 c -2.421,1.74 -5.068,2.61 -7.413,2.61 -1.778,0 -2.648,-0.719 -2.648,-1.702 v -0.076 c 0,-1.21 0.908,-1.74 4.614,-2.572 6.052,-1.323 9.834,-3.29 9.834,-8.245 V 4.236 c 0,-5.409 -4.274,-8.624 -10.704,-8.624 C 7.716,-4.388 3.29,-2.913 0,0"
             style="fill:#211d1d;fill-opacity:1;fill-rule:nonzero;stroke:none"
             id="path32" /></g><g
           id="g34"
           transform="translate(48.4443,273.8354)"><path
             d="m 0,0 h -12.918 c 0.439,-0.766 1.03,-1.576 1.825,-2.345 L 1.445,-2.353 C 0.804,-1.749 0.315,-0.957 0,0"
             style="fill:#211d1d;fill-opacity:1;fill-rule:nonzero;stroke:none"
             id="path36" /></g><g
           id="g38"
           transform="translate(50.4214,270.8799)"><path
             d="m 0,0 -12.386,0.008 c 1.175,-0.958 2.718,-1.805 4.738,-2.357 H 0.261 C 0.043,-1.454 -0.048,-0.648 0,0"
             style="fill:#211d1d;fill-opacity:1;fill-rule:nonzero;stroke:none"
             id="path40" /></g><g
           id="g42"
           transform="translate(44.1016,267.9287)"><path
             d="M 0,0 C 0.122,-0.731 0.39,-1.528 0.783,-2.349 L 7.625,-2.354 C 7.257,-1.546 6.96,-0.75 6.742,0 Z"
             style="fill:#211d1d;fill-opacity:1;fill-rule:nonzero;stroke:none"
             id="path44" /></g><g
           id="g46"
           transform="translate(53.3828,262.624)"><path
             d="M 0,0 C -0.517,0.762 -0.975,1.556 -1.369,2.348 L -8.19,2.353 C -7.761,1.566 -7.228,0.77 -6.604,0 Z"
             style="fill:#211d1d;fill-opacity:1;fill-rule:nonzero;stroke:none"
             id="path48" /></g><g
           id="g50"
           transform="translate(59.0093,262.0215)"><path
             d="m 0,0 h -4.496 c 0.679,-0.877 1.447,-1.683 2.296,-2.352 L 2.922,-2.35 C 1.712,-1.738 0.755,-0.922 0,0"
             style="fill:#211d1d;fill-opacity:1;fill-rule:nonzero;stroke:none"
             id="path52" /></g><g
           id="g54"
           transform="translate(51.4736,267.9287)"><path
             d="M 0,0 C 0.223,-0.744 0.525,-1.542 0.9,-2.354 L 5.627,-2.357 C 5.359,-1.547 5.181,-0.746 5.068,0 Z"
             style="fill:#211d1d;fill-opacity:1;fill-rule:nonzero;stroke:none"
             id="path56" /></g><g
           id="g58"
           transform="translate(61.9629,259.0693)"><path
             d="m 0,0 -4.308,-0.002 c 0.55,-0.35 1.13,-0.639 1.738,-0.855 C -1.776,-0.589 -0.893,-0.293 0,0"
             style="fill:#211d1d;fill-opacity:1;fill-rule:nonzero;stroke:none"
             id="path60" /></g><g
           id="g62"
           transform="translate(49.8608,259.6665)"><path
             d="M 0,0 6.062,0.002 C 5.291,0.696 4.583,1.498 3.95,2.355 H -2.568 C -1.81,1.503 -0.945,0.7 0,0"
             style="fill:#211d1d;fill-opacity:1;fill-rule:nonzero;stroke:none"
             id="path64" /></g><g
           id="g66"
           transform="translate(51.0234,270.8794)"><path
             d="M 0,0 C -0.05,-0.604 0.049,-1.418 0.284,-2.349 H 5.439 C 5.334,-1.406 5.334,-0.587 5.383,-0.003 Z"
             style="fill:#211d1d;fill-opacity:1;fill-rule:nonzero;stroke:none"
             id="path68" /></g><g
           id="g70"
           transform="translate(48.1499,275.0454)"><path
             d="m 0,0 c -0.169,1.035 -0.132,1.931 -0.099,2.345 l -13.764,10e-4 c 0,0 0.116,-1.308 0.922,-2.953 H 0.124 C 0.076,-0.41 0.034,-0.209 0,0"
             style="fill:#211d1d;fill-opacity:1;fill-rule:nonzero;stroke:none"
             id="path72" /></g><g
           id="g74"
           transform="translate(54.9453,273.8354)"><path
             d="m 0,0 h -5.862 c 0.323,-0.894 0.867,-1.76 1.767,-2.354 L 1.304,-2.357 C 0.587,-1.75 0.199,-0.878 0,0"
             style="fill:#211d1d;fill-opacity:1;fill-rule:nonzero;stroke:none"
             id="path76" /></g><g
           id="g78"
           transform="translate(52.665,264.9717)"><path
             d="M 0,0 C 0.401,-0.795 0.871,-1.59 1.405,-2.348 H 5.886 C 5.367,-1.601 4.965,-0.804 4.654,-0.003 Z"
             style="fill:#211d1d;fill-opacity:1;fill-rule:nonzero;stroke:none"
             id="path80" /></g><g
           id="g82"
           transform="translate(63.3467,234.0498)"><path
             d="M 0,0 H -0.001 C 0,0 0,-0.001 0.001,-0.002 Z"
             style="fill:#211d1d;fill-opacity:1;fill-rule:nonzero;stroke:none"
             id="path84" /></g><g
           id="g86"
           transform="translate(67.3765,244.5464)"><path
             d="m 0,0 -0.712,-0.914 c -0.046,0.267 -0.005,0.56 0.107,0.873 l 0.005,0.008 -0.002,0.004 c 0.001,0.003 0.001,0.005 0.002,0.008 l -0.004,-0.005 -1.114,1.634 c 0.067,0.141 0.117,0.273 0.154,0.394 z M 2.638,2.053 3.65,1.393 0.472,0.315 -0.092,1.084 Z M 3.784,3.261 5.349,3.846 5.322,1.96 3.784,1.438 Z M 6.264,0.89 c 0.54,-0.179 1,0.101 1,0.101 0.248,-0.656 -0.619,-2.875 -3.343,-2.617 1.577,0.27 2.514,1.588 2.343,2.516 M 6.618,3.618 C 7.517,3.972 7.996,3.167 7.996,3.167 6.813,3.779 6.23,2.779 6.319,2.15 c 0,0 0.285,0.296 0.576,0.248 C 7.351,2.319 7.353,1.899 7.245,1.755 7.167,1.649 6.7,1.188 6.09,1.663 5.483,2.136 5.75,3.273 6.618,3.618 M 8.194,1.914 C 8.444,1.155 8.001,0.644 7.727,0.41 7.842,0.938 7.719,1.261 7.719,1.261 c 0,0 0.328,0.25 0.475,0.653 M 3.019,-3.349 c -1.427,0 -2.588,1.221 -2.588,2.72 0,0.003 0,0.005 0,0.007 l 1.122,0.37 c -0.18,-1.419 1.281,-1.757 1.281,-1.757 0.424,-0.165 0.885,-0.255 1.367,-0.255 0.356,0 0.698,0.048 1.025,0.136 C 4.718,-2.79 3.773,-3.349 3.019,-3.349 m -4.615,2.093 c -0.048,0.452 0.194,0.945 0.206,0.97 l 0.004,0.005 -0.784,1.2 c 0.073,0.083 0.138,0.167 0.197,0.251 l 1.111,-1.516 z m -0.927,-0.13 c -0.026,0.428 0.248,0.855 0.248,0.855 0,0 -0.382,0.382 -0.673,0.811 0.156,0.094 0.298,0.193 0.423,0.296 L -1.75,-0.63 c -0.292,-0.282 -0.67,-0.648 -0.773,-0.756 m -0.513,0.511 -3.606,-1.224 0.328,0.469 -0.213,0.428 3.284,1.167 c 0.012,-0.022 0.024,-0.044 0.035,-0.065 0.108,-0.207 0.207,-0.394 0.289,-0.54 -0.049,-0.077 -0.087,-0.156 -0.117,-0.235 m -3.64,2.998 -0.499,-0.568 c -0.161,-0.183 -0.29,-0.327 -0.393,-0.44 -0.251,0.841 -0.033,1.419 0.07,1.625 3.167,1.046 4.842,2.154 5.541,2.703 0.166,-0.991 0.29,-3.318 -1.788,-4.727 -0.045,0.133 -0.097,0.292 -0.146,0.452 L -4.118,1.917 -4.452,1.209 C -4.711,0.658 -5.426,-0.094 -6.11,-0.405 -6.306,-0.08 -6.625,0.748 -6.648,1.367 Z m -0.998,-4.649 c -0.068,0.333 0.123,0.653 0.236,0.842 L -8.54,0.269 c 0.112,0.155 0.208,0.318 0.287,0.487 l 1.24,-2.334 z m -1.175,-0.37 c -0.158,0.622 0.196,1.297 0.207,1.32 l 0.002,0.002 -0.586,1.081 c 0.11,0.101 0.22,0.21 0.327,0.325 l 0.934,-1.425 z m -0.447,0.667 c -0.099,-0.1 -0.35,-0.41 -0.56,-0.673 -0.066,0.26 -0.072,0.594 0.179,0.866 l 0.158,0.171 -0.125,0.196 c -0.084,0.132 -0.208,0.336 -0.344,0.565 0.107,0.075 0.233,0.168 0.368,0.275 l 0.623,-1.101 z m -1.083,2.8 -0.131,0.726 -0.415,-0.61 c -0.359,-0.527 -1.226,-0.966 -1.781,-1.026 -0.419,0.41 -1.104,1.528 -1.162,2.456 l -0.043,0.696 -0.477,-0.509 C -14.429,2.26 -14.466,2.22 -14.5,2.183 c -0.371,1.397 0.09,2.82 0.68,3.936 -0.139,-0.791 -0.147,-1.724 0.167,-2.713 l 0.192,-0.588 0.277,0.411 c 0.189,-0.713 0.573,-1.346 0.927,-1.634 l 0.084,-0.069 0.11,0.002 c 0.432,0.005 1.144,0.301 1.673,0.701 l 0.033,-0.435 0.399,0.196 c 0.997,0.489 1.697,1.237 2.203,2.22 -0.448,-1.939 -1.206,-3.462 -2.559,-4.1 -0.013,0.128 -0.033,0.282 -0.065,0.461 m -0.097,-4.596 c -0.384,-0.563 -0.868,-0.856 -1.439,-0.869 -0.426,-0.008 -0.772,0.136 -0.966,0.252 0.136,0.199 0.34,0.392 0.622,0.581 v 0.001 c 0.654,0.291 1.062,0.712 1.211,1.255 0.065,0.24 0.071,0.477 0.044,0.701 0.435,-0.547 0.546,-1.204 0.534,-1.926 z m -0.694,-2.162 c -0.488,-0.315 -1.137,-0.199 -1.395,-0.134 -0.266,0.305 -0.441,0.608 -0.497,0.9 -0.003,0.021 -0.003,0.041 -0.006,0.061 0.314,-0.15 0.707,-0.257 1.114,-0.257 h 0.016 c 0.385,0.002 0.883,0.098 1.37,0.456 -0.095,-0.484 -0.296,-0.83 -0.602,-1.026 m 4.494,-4.011 c -0.428,-0.042 -0.858,-0.064 -1.289,-0.064 -6.7,0 -12.151,5.162 -12.151,11.509 0,1.682 0.389,3.309 1.089,4.631 -10e-4,-0.125 0,-0.25 0.004,-0.374 0.024,-1.155 0.268,-2.238 0.574,-3.071 0.058,-0.174 0.108,-0.311 0.147,-0.416 -0.531,-0.521 -0.895,-1.337 -0.667,-2.635 0.302,-1.719 1.986,-2.482 4.62,-2.095 0.771,0.113 1.353,-0.177 1.567,-0.494 0.076,-0.112 0.144,-0.284 0.04,-0.462 v 0 c -0.733,-0.542 -1.043,-1.168 -0.912,-1.864 0.368,-1.944 4.26,-3.766 6.978,-4.665 m -10.419,8.211 c -0.635,0.232 -1.141,0.675 -1.281,1.473 -0.185,1.055 0.069,1.71 0.531,2.138 l 0.094,0.078 c 0.001,0.001 0.044,0.037 0.114,0.09 0.122,0.087 0.252,0.163 0.39,0.229 -0.341,-0.81 -0.797,-2.44 0.152,-4.008 m 0.035,4.86 c -0.289,-0.146 -0.551,-0.318 -0.745,-0.456 -0.209,0.601 -0.588,1.858 -0.619,3.195 0.322,-0.873 0.797,-1.97 1.364,-2.739 m 1.316,2.835 c 0.048,-0.193 0.112,-0.383 0.192,-0.571 l -1.77,-0.606 c -0.086,0.184 -0.168,0.369 -0.245,0.553 z m -0.588,-7.54 c -1.023,1.432 -0.534,2.965 -0.227,3.64 0.156,-0.542 0.502,-1.034 1.038,-1.474 0.011,-0.135 0.093,-1.468 -0.811,-2.166 m 1.504,1.411 c 0.325,-0.304 0.891,-0.975 0.538,-1.684 -0.049,-0.005 -0.096,-0.005 -0.147,-0.012 -0.358,-0.052 -0.785,-0.093 -1.224,-0.091 0.552,0.539 0.761,1.241 0.833,1.787 m 3.082,-2.193 c -0.056,-0.207 -0.188,-0.39 -0.393,-0.547 -0.033,0.099 -0.08,0.197 -0.144,0.291 -0.221,0.328 -0.66,0.623 -1.241,0.734 0.159,0.523 0.043,1.022 -0.184,1.445 0.295,-0.12 0.609,-0.234 0.948,-0.341 0.257,-0.081 0.482,-0.173 0.687,-0.27 l -0.003,-0.002 c 0.005,-0.007 0.497,-0.699 0.33,-1.31 m -3.479,5.542 c 0.032,-0.511 0.142,-1 0.333,-1.461 l 0.22,-0.516 0.313,0.47 c 0,0 10e-4,0.002 0.004,0.005 0.141,-0.519 0.393,-1.042 0.665,-1.472 -1.63,0.705 -2.424,1.598 -2.36,2.666 v 0.006 z m 7.65,26.361 c -0.63,-1.999 -1.25,-5.719 -0.54,-8.067 0.717,-2.367 2.538,-3.783 5.593,-4.493 1.321,-0.309 2.685,-0.454 4.005,-0.593 L 1.719,16.111 C 1.948,16.087 2.172,16.056 2.392,16.018 1.787,15.94 1.083,15.731 0.416,15.237 1.254,15.384 2.717,15.507 3.758,14.95 3.223,14.921 2.326,14.702 1.722,14.106 c 0.711,0.121 1.927,0.179 2.67,-0.069 -1.013,-0.119 -1.856,-0.935 -1.856,-0.935 0,0 1.677,0.183 2.938,-0.145 -1.01,-0.612 -3.027,-1.32 -6.622,-0.785 1.274,-0.899 3.096,-1.34 3.096,-1.34 0,0 -0.775,-2.223 -5.096,-5.479 -0.796,-0.6 -2.191,-1.234 -4.188,-1.921 0.53,1.88 0.236,6.527 0.236,6.527 -0.007,-0.064 -0.584,-5.336 -2.713,-7.197 0.026,0.36 -0.041,1.084 -0.041,1.084 0,0 -0.704,-1.429 -2.106,-1.706 -0.302,0.314 -0.687,1.041 -0.735,1.805 l -0.044,0.697 -0.477,-0.509 c 0,-0.002 0,-0.002 -0.002,-0.002 -0.417,2.171 0.448,4.515 0.448,4.515 -0.036,-0.036 -0.897,-0.932 -1.593,-2.255 -0.221,-0.417 -0.397,-0.829 -0.535,-1.234 -0.769,1.456 -0.144,2.998 0.089,3.475 l 0.06,0.123 -0.052,0.125 c -0.658,1.595 0.173,2.359 0.38,2.52 l 3.379,1.22 c 0.209,0.072 1.045,0.364 2.188,0.752 -0.656,0.301 -1.282,0.691 -1.875,1.149 l -5.916,-0.002 c 1.306,-0.836 2.74,-1.46 4.239,-1.752 L -14.7,11.94 c 0,0 -0.003,0 -0.003,-0.002 l -0.021,-0.007 -9.564,-3.282 c -0.145,-0.916 -0.154,-1.808 -0.031,-2.675 l 8.836,3.024 c 0.024,-0.072 0.048,-0.147 0.077,-0.222 -0.065,-0.144 -0.125,-0.294 -0.181,-0.45 l -8.624,-2.952 c 0.171,-0.776 0.458,-1.533 0.862,-2.268 l 3.02,1.034 C -20.394,3.912 -20.45,3.68 -20.498,3.446 l -2.535,-0.867 c 0.596,-0.93 1.393,-1.824 2.395,-2.682 0.054,-0.441 0.131,-0.879 0.232,-1.314 0.128,-0.554 0.224,-1.081 0.289,-1.565 0.152,-1.28 -0.161,-2.695 -0.161,-2.695 0,0 1.889,-0.378 3.506,-1.823 0.004,-0.003 0.007,-0.008 0.012,-0.013 0.057,-0.048 0.113,-0.098 0.168,-0.152 0.003,0 0.005,0.003 0.005,0.003 1.687,-1.475 3.791,-2.521 6.121,-2.964 0.007,-0.569 0.147,-1.072 0.199,-1.241 0,0 4.786,0.243 6.232,1.371 h 0.005 v 0.002 c -0.005,0.003 -0.01,0.005 -0.015,0.005 -2.246,1.511 -4.038,3.547 -4.038,3.547 -0.661,-0.445 -1.14,-0.954 -1.463,-1.453 -0.874,0.434 -1.677,0.911 -2.296,1.4 0.32,0.015 0.675,0.094 0.995,0.299 0.53,0.338 0.841,0.933 0.923,1.769 0.017,0.161 0.028,0.323 0.041,0.487 0,0.002 0.002,0.004 0.005,0.007 l -0.005,0.005 c 0.007,0.137 0.012,0.274 0.012,0.412 l 0.604,0.2 c 0.005,-0.008 0.013,-0.019 0.015,-0.024 l 0.251,-0.379 0.414,0.627 0.381,0.125 c 0.002,-0.002 0.002,-0.007 0.002,-0.007 l 0.171,-0.617 0.617,0.884 4.333,1.427 c 0.041,-0.2 0.099,-0.335 0.104,-0.352 l 0.183,-0.412 0.31,0.325 c 0,0 0.145,0.152 0.311,0.325 0.008,-0.115 0.015,-0.175 0.015,-0.18 l 0.079,-0.699 0.757,0.904 c 0.002,-0.015 0.002,-0.022 0.002,-0.025 l 0.065,-0.826 1.135,1.525 c 0.258,-1.561 1.566,-2.756 3.14,-2.756 1.214,0 2.706,1.065 3.077,2.176 0.677,0.376 1.222,0.951 1.55,1.652 C 9.172,0.629 8.649,2.21 8.447,2.69 8.505,3.075 8.413,3.48 8.155,3.779 7.743,4.256 6.994,4.43 6.411,4.191 6.163,4.09 5.948,3.918 5.763,3.726 L 4.346,4.711 2.392,4.169 V 2.605 L -0.464,1.591 -1.461,2.952 c 0.341,1.306 0.122,2.53 0.021,2.966 1.911,1.685 11.798,9.439 12.901,10.218 0.511,0.361 0.947,0.51 1.232,0.508 0.332,-0.005 0.638,-0.304 0.725,-0.576 0,0 0.198,1.542 -1.094,1.849 -0.499,0.117 -1.005,0.245 -1.8,0.259 C 9.946,19.215 9.04,19.029 7.319,18.68 7.093,18.634 6.849,18.584 6.587,18.533 4.509,18.126 -0.298,17.791 -3.625,19.432 c -2.495,1.229 -3.032,5.065 -1.47,10.523 0.197,0.689 0.062,1.412 -0.369,1.983 -0.434,0.576 -1.097,0.906 -1.814,0.906 h -11.441 c -0.036,-0.434 -0.094,-1.665 0.24,-2.952 h 5.938 c -0.14,1 -0.075,1.92 -0.029,2.35 h 5.292 c 0.527,0 1.014,-0.244 1.332,-0.665 0.316,-0.42 0.415,-0.95 0.272,-1.456 -1.648,-5.766 -1,-9.86 1.781,-11.229 3.475,-1.713 8.448,-1.371 10.595,-0.952 0.265,0.053 0.509,0.104 0.737,0.15 1.741,0.354 2.207,0.423 2.556,-0.201 C 9.176,17.649 8.119,17.6 8.119,17.6 c 0,0 0.477,-0.176 1.246,-0.164 l 0.493,-0.215 0.711,0.371 c 0.008,0.003 0.015,0.004 0.023,0.006 0.495,0.006 1.287,-0.04 1.763,-0.364 -0.363,-0.036 -0.725,-0.241 -1.241,-0.605 -0.25,-0.178 -2.002,-1.529 -4.158,-3.214 0.002,0.314 -0.078,0.627 -0.242,0.933 -0.648,1.204 -2.537,2.108 -4.93,2.363 l -0.239,0.024 c -1.3,0.138 -2.645,0.28 -3.929,0.579 -2.868,0.67 -4.458,1.933 -5.157,4.094 -0.473,1.461 -0.581,4.075 -0.034,7.881"
             style="fill:#211d1d;fill-opacity:1;fill-rule:nonzero;stroke:none"
             id="path88" /></g><g
           id="g90"
           transform="translate(71.4639,268.0376)"><path
             d="m 0,0 c -3.938,1.247 -7.686,0.768 -9.474,0.401 0.046,-0.768 0.178,-1.445 0.393,-2.024 1.34,0.199 3.304,0.356 5.483,0.099 C -2.398,-0.758 -1.092,-0.25 0,0"
             style="fill:#211d1d;fill-opacity:1;fill-rule:nonzero;stroke:none"
             id="path92" /></g><g
           id="g94"
           transform="translate(61.9707,269.0493)"><path
             d="m 0,0 c 2.033,0.404 6.291,0.898 10.619,-0.767 -0.285,1.056 0.12,2.229 0.44,2.925 C 7.283,3.278 3.406,3.061 0.226,2.556 0.073,1.632 -0.002,0.777 0,0"
             style="fill:#211d1d;fill-opacity:1;fill-rule:nonzero;stroke:none"
             id="path96" /></g><g
           id="g98"
           transform="translate(73.3706,267.9609)"><path
             d="m 0,0 c 1.715,-0.766 3.421,-1.892 4.984,-3.518 l 2.3,1.955 C 5.15,0.792 2.726,2.23 0.239,3.063 -0.089,2.369 -0.567,1.058 -0.052,0.096 Z"
             style="fill:#211d1d;fill-opacity:1;fill-rule:nonzero;stroke:none"
             id="path100" /></g><g
           id="g102"
           transform="translate(77.6797,264.269)"><path
             d="M 0,0 C -1.581,1.576 -3.304,2.639 -5.026,3.34 -5.951,3.279 -7.427,2.876 -8.852,2.104 -7.106,1.802 -5.266,1.21 -3.527,0.153 -1.964,0.398 -0.614,0.152 0,0"
             style="fill:#211d1d;fill-opacity:1;fill-rule:nonzero;stroke:none"
             id="path104" /></g><g
           id="g106"
           transform="translate(71.2529,263.3379)"><path
             d="M 0,0 C 0.67,0.428 1.356,0.711 2.023,0.895 0.286,1.838 -1.535,2.328 -3.235,2.55 -4.069,1.998 -4.84,1.309 -5.417,0.478 c 1.525,-0.402 3.115,-0.506 4.334,-0.506 0.359,0 0.723,0.01 1.083,0.028"
             style="fill:#211d1d;fill-opacity:1;fill-rule:nonzero;stroke:none"
             id="path108" /></g><g
           id="g110"
           transform="translate(64.001,264.4858)"><path
             d="M 0,0 C 0.393,-0.194 0.806,-0.355 1.229,-0.493 1.73,0.276 2.383,0.939 3.109,1.498 1.357,1.639 -0.216,1.518 -1.362,1.357 -1.031,0.746 -0.578,0.285 0,0"
             style="fill:#211d1d;fill-opacity:1;fill-rule:nonzero;stroke:none"
             id="path112" /></g><g
           id="g114"
           transform="translate(79.8936,261.8335)"><path
             d="m 0,0 c -0.112,0.045 -0.176,0.203 -0.452,0.132 -0.437,-0.112 -0.839,-0.286 -1.326,-0.57 0.305,0.021 0.667,-0.021 0.667,-0.021 z"
             style="fill:#211d1d;fill-opacity:1;fill-rule:nonzero;stroke:none"
             id="path116" /></g></g></g></g></svg>
